<?xml version="1.0" encoding="UTF-8" standalone="no"?>
<svg
   xmlns:dc="http://purl.org/dc/elements/1.1/"
   xmlns:cc="http://creativecommons.org/ns#"
   xmlns:rdf="http://www.w3.org/1999/02/22-rdf-syntax-ns#"
   xmlns:svg="http://www.w3.org/2000/svg"
   xmlns="http://www.w3.org/2000/svg"
   xmlns:sodipodi="http://sodipodi.sourceforge.net/DTD/sodipodi-0.dtd"
   xmlns:inkscape="http://www.inkscape.org/namespaces/inkscape"
   sodipodi:docname="drawing.svg"
   inkscape:version="1.0 (4035a4fb49, 2020-05-01)"
   inkscape:export-ydpi="96"
   inkscape:export-xdpi="96"
   inkscape:export-filename="/home/zenith-john/Documents/repo/ZClock/ZClock/ZClock.png"
   id="svg8"
   version="1.1"
   viewBox="0 0 8.4666667 8.4666667"
   height="32"
   width="32">
  <defs
     id="defs2" />
  <sodipodi:namedview
     inkscape:window-maximized="1"
     inkscape:window-y="34"
     inkscape:window-x="0"
     inkscape:window-height="1046"
     inkscape:window-width="1920"
     units="px"
     showgrid="false"
     inkscape:document-rotation="0"
     inkscape:current-layer="layer1"
     inkscape:document-units="mm"
     inkscape:cy="33.310677"
     inkscape:cx="18.330998"
     inkscape:zoom="7.9195959"
     inkscape:pageshadow="2"
     inkscape:pageopacity="0"
     borderopacity="1.0"
     bordercolor="#666666"
     pagecolor="#ffffff"
     id="base" />
  <metadata
     id="metadata5">
    <rdf:RDF>
      <cc:Work
         rdf:about="">
        <dc:format>image/svg+xml</dc:format>
        <dc:type
           rdf:resource="http://purl.org/dc/dcmitype/StillImage" />
        <dc:title></dc:title>
      </cc:Work>
    </rdf:RDF>
  </metadata>
  <g
     id="layer1"
     inkscape:groupmode="layer"
     inkscape:label="Layer 1">
    <path
       d="M 3.8753152,4.1884933 C 3.7839019,4.3282497 3.6418262,4.1342208 3.6430308,4.0365583 3.6462952,3.771899 3.9617465,3.6634947 4.179185,3.7239245 4.5681316,3.8320194 4.7078112,4.2947252 4.5721683,4.644298 4.3731068,5.1573101 3.746194,5.3321808 3.2675755,5.1176307 2.6296523,4.8316691 2.4189171,4.0354299 2.7138934,3.4288186 3.085091,2.6654603 4.052812,2.41861 4.7869247,2.7947871 5.6760336,3.2503879 5.95913,4.3906981 5.5013057,5.2520377 4.9617757,6.2670967 3.6482315,6.5865196 2.6598358,6.0467681 1.5186938,5.4236038 1.1628905,3.9364167 1.7847559,2.8210789 2.4913589,1.5537613 4.1524648,1.1615395 5.3946644,1.8656496 6.7882247,2.6555547 7.2168929,4.4907746 6.4304432,5.8597774 5.5573349,7.3796301 3.5478581,7.8447662 2.0520961,6.9759056"
       sodipodi:t0="0"
       sodipodi:argument="-16.699514"
       sodipodi:radius="3.330735"
       sodipodi:revolution="3"
       sodipodi:expansion="1"
       sodipodi:cy="4.1884933"
       sodipodi:cx="3.8753152"
       id="path833"
       style="fill:none;fill-rule:evenodd;stroke:#d38d5f;stroke-width:0.264583"
       sodipodi:type="spiral" />
    <path
       inkscape:export-ydpi="96"
       inkscape:export-xdpi="96"
       id="path835"
       d="m 1.1948725,1.3594833 c 5.9731616,0.034271 5.9861344,3.942e-4 5.9861344,3.942e-4 L 1.4959464,7.5004324 7.3680681,7.4800862 v 0 0"
       style="fill:none;stroke:#ffd42a;stroke-width:0.264583px;stroke-linecap:butt;stroke-linejoin:miter;stroke-opacity:1" />
  </g>
</svg>
